<svg width="993" height="974" viewBox="0 0 993 974" fill="none" xmlns="http://www.w3.org/2000/svg">
<path d="M83.5224 586.535L101.819 574.69C101.819 574.69 110.703 527.498 104.104 485.849C94.839 427.087 54.903 406.887 40.3923 412.682C25.8817 418.478 22.4549 435.95 48.663 469.794C64.1255 489.805 84.0089 532.089 83.5224 586.535Z" fill="#22BC50"/>
<g opacity="0.3">
<path d="M83.5224 586.535L101.819 574.69C101.819 574.69 110.703 527.498 104.104 485.849C94.839 427.087 54.903 406.887 40.3923 412.682C25.8817 418.478 22.4549 435.95 48.663 469.794C64.1255 489.805 84.0089 532.089 83.5224 586.535Z" fill="white"/>
</g>
<path d="M90.1854 563.246H89.995C89.6522 563.194 89.3434 563.01 89.134 562.733C88.9247 562.457 88.8314 562.11 88.8739 561.766C96.4677 506.769 74.3844 446.653 49.5513 422.391C49.3017 422.147 49.1592 421.814 49.1552 421.465C49.1513 421.116 49.2861 420.78 49.5302 420.53C49.7742 420.28 50.1074 420.138 50.4565 420.134C50.8056 420.13 51.142 420.265 51.3916 420.509C76.6689 445.194 99.1752 506.304 91.4757 562.104C91.4348 562.418 91.2817 562.707 91.0445 562.917C90.8073 563.127 90.5021 563.244 90.1854 563.246Z" fill="white"/>
<path d="M37.4521 616.297C34.7022 617.862 26.8758 611.834 24.7605 610.374C21.0455 607.842 18.0443 604.396 16.0457 600.369C13.8155 595.774 13.0759 590.598 13.9304 585.562C14.3704 582.907 14.9924 580.285 15.7919 577.715C16.5322 575.176 17.2514 572.638 17.9071 570.1C18.7968 567.643 19.1712 565.029 19.007 562.421C18.3513 557.218 13.7189 553.58 9.5307 550.428C4.87714 546.959 0.0543562 542.369 0.0755088 536.108C0.408956 531.244 2.35127 526.63 5.59632 522.993C8.59999 519.186 12.1536 515.843 14.8611 511.824C16.9927 509.036 18.105 505.603 18.0129 502.094C17.7215 499.949 17.0022 497.885 15.8976 496.023C13.7824 491.941 10.7787 488.197 9.25572 483.818C7.73273 479.44 7.94426 473.983 11.371 470.852C14.1631 468.271 18.3513 467.912 22.1376 468.166C25.6966 468.601 29.118 469.806 32.1639 471.698C42.1056 477.219 47.7957 489.001 58.3508 493.252C62.511 494.563 66.75 495.609 71.0423 496.383C75.2728 497.504 79.6091 499.683 81.6186 503.596C85.4895 511.338 78.2977 520.878 81.0263 529.085C83.4377 536.361 90.5027 539.132 94.4582 545.69C96.075 548.584 96.7271 551.918 96.3196 555.208C95.9743 560.768 94.6121 566.216 92.3007 571.284C89.6908 576.544 86.7592 581.637 83.5223 586.535L37.4521 616.297Z" fill="#22BC50"/>
<g opacity="0.65">
<path d="M37.4521 616.297C34.7022 617.862 26.8758 611.834 24.7605 610.374C21.0455 607.842 18.0443 604.396 16.0457 600.369C13.8155 595.774 13.0759 590.598 13.9304 585.562C14.3704 582.907 14.9924 580.285 15.7919 577.715C16.5322 575.176 17.2514 572.638 17.9071 570.1C18.7968 567.643 19.1712 565.029 19.007 562.421C18.3513 557.218 13.7189 553.58 9.5307 550.428C4.87714 546.959 0.0543562 542.369 0.0755088 536.108C0.408956 531.244 2.35127 526.63 5.59632 522.993C8.59999 519.186 12.1536 515.843 14.8611 511.824C16.9927 509.036 18.105 505.603 18.0129 502.094C17.7215 499.949 17.0022 497.885 15.8976 496.023C13.7824 491.941 10.7787 488.197 9.25572 483.818C7.73273 479.44 7.94426 473.983 11.371 470.852C14.1631 468.271 18.3513 467.912 22.1376 468.166C25.6966 468.601 29.118 469.806 32.1639 471.698C42.1056 477.219 47.7957 489.001 58.3508 493.252C62.511 494.563 66.75 495.609 71.0423 496.383C75.2728 497.504 79.6091 499.683 81.6186 503.596C85.4895 511.338 78.2977 520.878 81.0263 529.085C83.4377 536.361 90.5027 539.132 94.4582 545.69C96.075 548.584 96.7271 551.918 96.3196 555.208C95.9743 560.768 94.6121 566.216 92.3007 571.284C89.6908 576.544 86.7592 581.637 83.5223 586.535L37.4521 616.297Z" fill="white"/>
</g>
<path d="M64.0197 600.729C63.8567 600.723 63.6964 600.685 63.5482 600.617C63.4 600.549 63.2669 600.452 63.1566 600.332C63.0463 600.212 62.9611 600.071 62.9059 599.918C62.8507 599.764 62.8267 599.601 62.8352 599.438C64.9504 550.28 41.6826 495.981 24.7606 480.223C24.5547 479.99 24.4427 479.69 24.4464 479.38C24.4501 479.069 24.5692 478.772 24.7805 478.544C24.9919 478.317 25.2802 478.177 25.5894 478.151C25.8986 478.125 26.2064 478.215 26.4528 478.403C43.6287 494.501 67.2772 549.688 65.2043 599.544C65.1889 599.853 65.0592 600.146 64.8403 600.365C64.6214 600.584 64.3289 600.713 64.0197 600.729Z" fill="white"/>
<path d="M56.024 540.634H55.6644C44.0423 537.417 32.1063 535.467 20.0646 534.817C19.9016 534.812 19.7413 534.774 19.5931 534.706C19.4449 534.638 19.3118 534.541 19.2015 534.421C19.0912 534.301 19.006 534.16 18.9508 534.006C18.8956 533.853 18.8716 533.69 18.8801 533.527C18.8826 533.363 18.9184 533.201 18.9855 533.052C19.0526 532.902 19.1495 532.768 19.2703 532.657C19.391 532.546 19.5332 532.461 19.6879 532.407C19.8427 532.353 20.0069 532.331 20.1704 532.342C32.4524 532.982 44.6293 534.946 56.4893 538.202C56.7996 538.308 57.0567 538.53 57.2065 538.822C57.3564 539.114 57.3874 539.453 57.2931 539.767C57.2087 540.032 57.0379 540.262 56.8079 540.419C56.5779 540.576 56.302 540.652 56.024 540.634Z" fill="white"/>
<path d="M503.781 973.817C773.629 973.817 992.384 847.521 992.384 691.727C992.384 535.933 773.629 409.636 503.781 409.636C233.933 409.636 15.1785 535.933 15.1785 691.727C15.1785 847.521 233.933 973.817 503.781 973.817Z" fill="#FAFAFA"/>
<path d="M244.113 571.475C347.612 511.74 515.394 511.74 618.872 571.475C706.592 622.114 719.918 699.426 658.935 758.209L886.643 888.002C900.519 896.018 900.519 909.006 886.643 917.023L866.167 928.847C852.291 936.864 830.208 936.229 816.755 927.451L617.921 788.394C514.273 847.621 347.337 847.389 244.197 787.844C140.634 728.088 140.634 631.231 244.113 571.475Z" fill="#E6E6E6"/>
<path d="M868.727 196.247L850.79 206.611C850.881 205.825 850.93 205.034 850.938 204.242V199.039C850.938 189.774 844.444 186.03 836.427 190.578C832.973 192.686 830.02 195.523 827.776 198.891C826.443 187.257 817.326 182.921 806.221 189.309C794.228 196.247 784.519 213.084 784.519 226.939V234.702C784.436 237.814 785.065 240.903 786.359 243.734L771.552 252.343C769.193 253.874 767.231 255.944 765.83 258.383C764.429 260.821 763.628 263.558 763.493 266.367C763.493 271.508 767.089 273.58 771.552 271.021L868.854 214.84C871.202 213.318 873.157 211.261 874.558 208.838C875.958 206.415 876.766 203.695 876.913 200.9C876.786 195.76 873.19 193.687 868.727 196.247Z" fill="#EBEBEB"/>
<path d="M632.136 242.909L642.247 235.104V212.809C642.247 195.126 656.355 174.608 671.649 165.787C686.963 156.945 699.38 164.116 699.38 181.778V185.015C702.608 179.786 707.011 175.382 712.24 172.154C723.261 165.808 732.187 170.948 732.187 183.661V185.142L746.296 176.998C753.551 172.767 759.432 176.194 759.432 184.571C759.186 189.13 757.868 193.567 755.585 197.521C753.303 201.476 750.121 204.837 746.296 207.331L632.136 273.242C624.88 277.473 619 274.025 619 265.648C619.246 261.092 620.564 256.658 622.847 252.707C625.129 248.756 628.312 245.399 632.136 242.909Z" fill="#EBEBEB"/>
<path d="M199.502 610.353V674.72C199.502 709.664 222.6 744.524 268.776 771.282C361.129 824.607 510.889 824.607 603.241 771.282C649.417 744.608 672.515 709.664 672.515 674.72V610.353C672.515 575.409 649.417 540.55 603.241 513.813C510.889 460.487 361.129 460.487 268.776 513.813C222.6 540.465 199.502 575.409 199.502 610.353ZM649.628 610.353C649.628 638.317 629.089 665.561 591.797 687.095C550.55 710.912 495.236 724.027 436.009 724.027C376.781 724.027 321.467 710.912 280.22 687.095C242.928 665.561 222.389 638.317 222.389 610.353C222.389 582.389 242.928 555.145 280.22 533.612C321.467 509.794 376.781 496.679 436.009 496.679C495.236 496.679 550.571 509.794 591.797 533.612C629.11 555.145 649.628 582.453 649.628 610.353Z" fill="#37474F"/>
<path opacity="0.2" d="M199.502 610.353V674.72C199.502 709.664 222.6 744.524 268.776 771.282C361.129 824.607 510.889 824.607 603.241 771.282C649.417 744.608 672.515 709.664 672.515 674.72V610.353C672.515 575.409 649.417 540.55 603.241 513.813C510.889 460.487 361.129 460.487 268.776 513.813C222.6 540.465 199.502 575.409 199.502 610.353ZM649.628 610.353C649.628 638.317 629.089 665.561 591.797 687.095C550.55 710.912 495.236 724.027 436.009 724.027C376.781 724.027 321.467 710.912 280.22 687.095C242.928 665.561 222.389 638.317 222.389 610.353C222.389 582.389 242.928 555.145 280.22 533.612C321.467 509.794 376.781 496.679 436.009 496.679C495.236 496.679 550.571 509.794 591.797 533.612C629.11 555.145 649.628 582.453 649.628 610.353Z" fill="white"/>
<path opacity="0.6" d="M672.283 680.728C668.602 702.874 658.851 719.543 619.57 750.193C564.045 793.555 423.444 811.26 341.837 784.333C264.863 758.95 240.305 709.262 240.305 675.186L240.517 655.154C228.629 641.003 222.368 625.794 222.368 610.353C222.368 594.531 228.946 578.942 241.405 564.494L241.68 536.277H237.301C212.109 558.762 199.502 584.547 199.502 610.311V674.678C199.502 709.622 222.6 744.481 268.776 771.239C361.129 824.565 510.889 824.565 603.241 771.239C646.773 746.152 669.787 713.599 672.283 680.728Z" fill="#37474F"/>
<path d="M603.262 513.813C510.889 460.487 361.15 460.487 268.798 513.813C176.446 567.138 176.424 653.589 268.798 706.915C361.171 760.24 510.889 760.24 603.262 706.915C695.635 653.589 695.614 567.138 603.262 513.813ZM591.818 687.095C550.571 710.912 495.236 724.027 436.03 724.027C376.824 724.027 321.489 710.912 280.22 687.095C242.928 665.561 222.389 638.317 222.389 610.353C222.389 582.389 242.928 555.145 280.22 533.612C321.467 509.794 376.803 496.679 436.03 496.679C495.257 496.679 550.571 509.794 591.818 533.612C629.11 555.145 649.649 582.411 649.649 610.353C649.649 638.296 629.11 665.561 591.818 687.095Z" fill="#37474F"/>
<path opacity="0.5" d="M603.262 513.813C510.889 460.487 361.15 460.487 268.798 513.813C176.446 567.138 176.424 653.589 268.798 706.915C361.171 760.24 510.889 760.24 603.262 706.915C695.635 653.589 695.614 567.138 603.262 513.813ZM591.818 687.095C550.571 710.912 495.236 724.027 436.03 724.027C376.824 724.027 321.489 710.912 280.22 687.095C242.928 665.561 222.389 638.317 222.389 610.353C222.389 582.389 242.928 555.145 280.22 533.612C321.467 509.794 376.803 496.679 436.03 496.679C495.257 496.679 550.571 509.794 591.818 533.612C629.11 555.145 649.649 582.411 649.649 610.353C649.649 638.296 629.11 665.561 591.818 687.095Z" fill="white"/>
<path d="M649.671 610.353C649.534 621.72 646.342 632.84 640.427 642.547C631.056 626.323 614.536 611.093 591.776 598C550.571 574.161 495.215 561.046 435.987 561.046C376.76 561.046 321.446 574.161 280.22 598C257.481 611.093 240.982 626.323 231.569 642.547C225.701 632.823 222.533 621.71 222.389 610.353C222.389 582.41 242.928 555.145 280.241 533.59C321.467 509.815 376.803 496.679 436.009 496.679C495.215 496.679 550.592 509.815 591.797 533.59C629.131 555.145 649.671 582.453 649.671 610.353Z" fill="#37474F"/>
<path opacity="0.3" d="M649.671 610.353C649.534 621.72 646.342 632.84 640.427 642.547C631.056 626.323 614.536 611.093 591.776 598C550.571 574.161 495.215 561.046 435.987 561.046C376.76 561.046 321.446 574.161 280.22 598C257.481 611.093 240.982 626.323 231.569 642.547C225.701 632.823 222.533 621.71 222.389 610.353C222.389 582.41 242.928 555.145 280.241 533.59C321.467 509.815 376.803 496.679 436.009 496.679C495.215 496.679 550.592 509.815 591.797 533.59C629.131 555.145 649.671 582.453 649.671 610.353Z" fill="white"/>
<path opacity="0.6" d="M280.241 533.59C242.928 555.145 222.389 582.41 222.389 610.353C222.539 621.712 225.715 632.825 231.59 642.547C241.024 626.323 257.523 611.093 280.241 598C289.848 592.505 299.828 587.692 310.109 583.595C301.098 587.085 273.43 595.99 283.52 569.613C295.513 538.286 354.042 504.358 397.046 498.731C352.816 503.11 312.266 515.124 280.241 533.59Z" fill="#37474F"/>
<path opacity="0.4" d="M591.818 562.76C550.571 538.942 495.236 525.827 436.03 525.827C376.824 525.827 321.467 538.942 280.22 562.76C249.464 580.528 230.131 602.188 224.293 624.927C230.131 647.666 249.464 669.347 280.22 687.094C321.489 710.912 376.803 724.027 436.03 724.027C495.257 724.027 550.571 710.912 591.818 687.094C622.595 669.326 641.929 647.666 647.746 624.927C641.95 602.188 622.595 580.528 591.818 562.76Z" fill="white"/>
<path d="M264.419 639.692C277.639 650.056 292.637 656.614 307.93 661.817C323.265 666.895 338.972 670.771 354.91 673.409C386.756 678.58 419.053 680.423 451.281 678.908C467.378 678.189 483.496 676.687 499.509 674.53C515.47 672.386 531.286 669.271 546.869 665.202C562.376 661.322 577.377 655.643 591.564 648.28C595.067 646.414 598.457 644.344 601.718 642.082C604.992 639.847 608.096 637.373 611.004 634.678C613.937 631.971 616.555 628.941 618.809 625.646C621.141 622.262 622.919 618.528 624.076 614.583C624.145 618.907 623.428 623.208 621.961 627.275C620.408 631.364 618.377 635.255 615.911 638.867C613.473 642.505 610.697 645.904 607.619 649.02C604.572 652.149 601.329 655.081 597.91 657.798C584.126 668.305 568.847 676.69 552.58 682.674C536.542 688.716 519.999 693.325 503.147 696.444C486.383 699.617 469.421 701.631 452.381 702.472C418.178 704.26 383.908 700.612 350.848 691.663C334.31 687.132 318.338 680.745 303.234 672.626C295.713 668.503 288.564 663.732 281.87 658.369C280.199 657.037 278.634 655.577 277.026 654.139C275.418 652.7 273.895 651.241 272.436 649.697C269.49 646.591 266.808 643.244 264.419 639.692Z" fill="white"/>
<path d="M596.218 747.887C596.502 742.135 598.141 736.531 601.001 731.532C603.86 726.533 607.86 722.28 612.675 719.12C617.201 716.476 621.326 716.201 624.33 717.893L677.042 748.035C680.024 749.749 681.886 753.45 681.907 758.611C681.618 764.362 679.977 769.964 677.118 774.962C674.258 779.961 670.261 784.215 665.45 787.379C660.881 790.044 656.735 790.319 653.732 788.585L601.041 758.463C598.122 756.898 596.239 753.196 596.218 747.887Z" fill="#37474F"/>
<path d="M601.147 758.611C598.122 756.898 596.239 753.196 596.218 747.887C596.293 743.606 597.251 739.386 599.031 735.492L674.779 778.897C672.314 782.362 669.178 785.297 665.556 787.527C660.987 790.192 656.841 790.467 653.838 788.733L601.147 758.611Z" fill="#263238"/>
<path d="M856.521 833.767L688.782 748.289L688.57 748.162C684.678 746.047 679.39 746.428 673.573 749.812C661.685 756.75 652.103 773.503 652.166 787.252C652.166 794.148 654.641 798.971 658.512 801.213L816.162 902.745C820.698 905.616 825.766 907.544 831.063 908.414C836.36 909.284 841.779 909.079 846.995 907.81C852.211 906.541 857.118 904.234 861.423 901.027C865.729 897.821 869.344 893.78 872.054 889.146C874.764 884.512 876.513 879.38 877.196 874.055C877.88 868.731 877.484 863.323 876.033 858.155C874.581 852.986 872.103 848.163 868.748 843.973C865.392 839.783 861.227 836.312 856.5 833.767H856.521Z" fill="#455A64"/>
<path d="M658.533 801.255L816.183 902.787C822.044 906.466 828.761 908.56 835.674 908.862C842.588 909.164 849.461 907.664 855.621 904.51C861.78 901.355 867.014 896.655 870.81 890.868C874.605 885.082 876.832 878.409 877.272 871.503C874.247 884.638 852.545 895.807 825.639 880.767C798.733 865.728 699.062 802.714 653.774 776.633C652.711 780.059 652.155 783.623 652.124 787.21C652.145 794.19 654.641 799.013 658.533 801.255Z" fill="#37474F"/>
<path d="M658.533 801.255C654.599 799.013 652.188 794.19 652.188 787.294C652.188 773.545 661.706 756.792 673.594 749.854C679.411 746.47 684.699 746.11 688.591 748.204L703.398 755.735C699.4 753.619 694.006 753.958 688.02 757.427C675.836 764.534 666 781.731 666.064 795.84C666.064 802.905 668.496 807.96 672.515 810.245" fill="#37474F"/>
<path opacity="0.2" d="M672.494 810.245C668.475 807.96 666.148 802.905 666.043 795.84C666.065 792.102 666.643 788.388 667.756 784.819C662.701 781.816 657.983 779.066 653.774 776.633C653.24 778.402 652.824 780.204 652.526 782.027C652.399 782.916 652.293 783.804 652.209 784.692C652.209 785.581 652.103 786.448 652.209 787.294C652.209 794.19 654.684 799.013 658.555 801.255L672.494 810.245Z" fill="black"/>
<path d="M257.417 899.233L130.502 835.755L79.9475 858.134L257.417 899.233Z" fill="#FE4C1C"/>
<g opacity="0.15">
<path d="M257.417 899.233L130.502 835.755L79.9475 858.134L257.417 899.233Z" fill="white"/>
</g>
<path d="M257.417 899.234L145.626 824.502L165.637 795.734L257.417 899.234Z" fill="#FE4C1C"/>
<g opacity="0.15">
<path d="M257.417 899.234L145.626 824.502L165.637 795.734L257.417 899.234Z" fill="white"/>
</g>
<path d="M145.626 824.501L147.72 844.364L257.417 899.233L145.626 824.501Z" fill="#FE4C1C"/>
<g opacity="0.2">
<path d="M145.626 824.501L147.72 844.364L257.417 899.233L145.626 824.501Z" fill="black"/>
</g>
<path d="M127.52 820.694C127.827 820.687 128.121 820.566 128.345 820.356C128.604 820.1 128.76 819.759 128.783 819.396C128.806 819.033 128.695 818.675 128.471 818.388L126.039 815.131C125.94 814.994 125.813 814.879 125.667 814.795C125.52 814.71 125.357 814.659 125.189 814.643C125.021 814.627 124.851 814.647 124.691 814.702C124.531 814.757 124.385 814.845 124.262 814.962C124.004 815.217 123.847 815.556 123.82 815.918C123.793 816.279 123.897 816.638 124.114 816.929C124.918 818.008 125.743 819.044 126.568 820.123C126.672 820.285 126.812 820.421 126.977 820.52C127.142 820.619 127.328 820.679 127.52 820.694Z" fill="#455A64"/>
<path d="M116.372 806.268C114.863 804.068 113.404 801.847 111.994 799.605C111.803 799.297 111.73 798.93 111.788 798.573C111.847 798.215 112.032 797.89 112.311 797.659C112.443 797.555 112.595 797.48 112.758 797.44C112.922 797.401 113.091 797.397 113.256 797.429C113.421 797.461 113.577 797.529 113.713 797.627C113.849 797.725 113.963 797.851 114.045 797.997C115.463 800.218 116.901 802.418 118.276 804.597C118.483 804.895 118.572 805.259 118.525 805.619C118.478 805.979 118.299 806.308 118.022 806.543C117.817 806.721 117.554 806.819 117.282 806.818C117.099 806.799 116.923 806.74 116.766 806.645C116.608 806.55 116.474 806.421 116.372 806.268ZM105.183 788.098C103.892 785.75 102.623 783.36 101.417 780.97C101.252 780.648 101.21 780.276 101.299 779.925C101.389 779.575 101.604 779.269 101.904 779.066C102.049 778.976 102.213 778.919 102.382 778.898C102.552 778.878 102.724 778.894 102.887 778.947C103.05 778.999 103.199 779.086 103.326 779.201C103.452 779.317 103.551 779.458 103.617 779.616C104.802 781.964 106.05 784.312 107.319 786.638C107.499 786.953 107.558 787.322 107.484 787.677C107.41 788.032 107.208 788.347 106.917 788.563C106.72 788.684 106.493 788.75 106.261 788.754C106.039 788.75 105.823 788.688 105.633 788.572C105.443 788.457 105.288 788.293 105.183 788.098ZM95.7485 768.722C94.6909 766.205 93.6333 763.667 92.7449 761.15C92.6151 760.816 92.6123 760.447 92.7371 760.111C92.8619 759.776 93.1055 759.498 93.4217 759.33C93.5793 759.264 93.749 759.23 93.9202 759.233C94.0913 759.236 94.2599 759.274 94.4153 759.346C94.5707 759.418 94.7094 759.521 94.8224 759.649C94.9354 759.778 95.0203 759.929 95.0716 760.092C95.9812 762.567 96.9754 765.063 98.033 767.538C98.1752 767.869 98.1913 768.242 98.0783 768.584C97.9654 768.927 97.7311 769.217 97.4196 769.399C97.2553 769.481 97.0744 769.525 96.8908 769.526C96.6426 769.518 96.4022 769.438 96.1991 769.295C95.9961 769.152 95.8394 768.953 95.7485 768.722ZM88.4297 748.247C87.6682 745.602 86.9491 742.916 86.3145 740.314C86.2135 739.969 86.2494 739.599 86.4149 739.279C86.5804 738.96 86.8627 738.717 87.2029 738.601C87.3684 738.557 87.5412 738.548 87.7104 738.574C87.8796 738.6 88.0416 738.661 88.1864 738.752C88.3313 738.843 88.4558 738.963 88.5522 739.105C88.6487 739.246 88.715 739.406 88.747 739.574C89.3605 742.155 90.0585 744.778 90.8623 747.379C90.97 747.719 90.9473 748.088 90.7988 748.412C90.6502 748.736 90.3864 748.994 90.0585 749.135H89.6777C89.4021 749.14 89.1322 749.056 88.9076 748.896C88.683 748.736 88.5156 748.509 88.4297 748.247ZM83.5223 726.861C83.0993 724.175 82.7186 721.425 82.4013 718.696C82.3393 718.346 82.4178 717.985 82.6197 717.693C82.8216 717.4 83.1306 717.198 83.48 717.131C83.8269 717.108 84.1692 717.22 84.4339 717.446C84.6987 717.671 84.865 717.991 84.8973 718.337C85.1934 721.023 85.5741 723.731 85.9972 726.375C86.0684 726.719 86.0051 727.078 85.8202 727.377C85.6353 727.676 85.3428 727.892 85.003 727.982H84.7703C84.4654 727.967 84.175 727.847 83.9478 727.643C83.7206 727.439 83.5704 727.163 83.5223 726.861ZM81.4071 704.947C81.4071 702.832 81.2802 700.717 81.2802 698.453V696.677C81.2716 696.504 81.2972 696.332 81.3553 696.17C81.4134 696.007 81.503 695.858 81.619 695.73C81.7349 695.603 81.8749 695.499 82.0309 695.425C82.1869 695.352 82.3559 695.31 82.5282 695.302C82.8781 695.329 83.2032 695.493 83.4329 695.758C83.6626 696.023 83.7784 696.369 83.755 696.719V698.453C83.755 700.569 83.755 702.684 83.755 704.799C83.7847 705.152 83.6751 705.502 83.4497 705.775C83.2244 706.048 82.9012 706.221 82.5493 706.259C82.2316 706.217 81.94 706.061 81.7296 705.82C81.5191 705.578 81.4044 705.268 81.4071 704.947ZM83.0781 684.45C82.7319 684.388 82.4227 684.196 82.2142 683.912C82.0056 683.629 81.9136 683.277 81.9571 682.927C82.1897 680.199 82.4859 677.428 82.8243 674.699C82.8371 674.526 82.8853 674.358 82.9657 674.204C83.0461 674.051 83.1571 673.915 83.2919 673.806C83.4266 673.697 83.5823 673.617 83.7493 673.57C83.9162 673.524 84.091 673.512 84.2627 673.536C84.6082 673.607 84.9121 673.811 85.1097 674.103C85.3072 674.396 85.3828 674.754 85.3203 675.101C84.9819 677.787 84.6857 680.516 84.4531 683.181C84.4381 683.509 84.3024 683.821 84.072 684.055C83.8417 684.289 83.5329 684.43 83.2051 684.45H83.0781ZM86.0395 662.833C85.7008 662.725 85.4159 662.492 85.243 662.181C85.0701 661.871 85.0221 661.506 85.1088 661.161C85.6588 658.475 86.2933 655.789 86.9914 653.145C87.023 652.977 87.0893 652.818 87.1861 652.677C87.2828 652.536 87.4078 652.417 87.5532 652.328C87.6985 652.238 87.861 652.18 88.0301 652.157C88.1993 652.133 88.3714 652.146 88.5355 652.193C88.8703 652.322 89.1449 652.571 89.3054 652.892C89.4658 653.213 89.5006 653.582 89.4028 653.927C88.7259 656.508 88.0913 659.173 87.5413 661.796C87.4973 662.088 87.3527 662.355 87.1327 662.552C86.9126 662.749 86.6307 662.863 86.3356 662.875L86.0395 662.833ZM91.7507 641.913C91.4289 641.756 91.1781 641.484 91.0486 641.151C90.9192 640.817 90.9206 640.447 91.0527 640.115C91.9622 637.576 92.9775 635.017 94.0352 632.521C94.0949 632.362 94.1868 632.218 94.3051 632.097C94.4234 631.976 94.5655 631.88 94.7225 631.817C94.8795 631.753 95.0479 631.723 95.2172 631.727C95.3865 631.732 95.553 631.772 95.7062 631.844C96.0144 632.029 96.2458 632.319 96.3584 632.661C96.471 633.002 96.4572 633.373 96.3196 633.705C95.262 636.159 94.2044 638.655 93.3794 641.151C93.3001 641.399 93.1453 641.616 92.9367 641.771C92.7281 641.927 92.4762 642.013 92.216 642.018C92.0544 642.024 91.894 641.988 91.7507 641.913ZM100.444 622.262C100.146 622.052 99.9363 621.74 99.8544 621.384C99.7724 621.029 99.8243 620.656 100 620.337C101.29 617.989 102.644 615.641 104.019 613.378C104.1 613.228 104.213 613.097 104.35 612.995C104.486 612.892 104.643 612.821 104.81 612.785C104.976 612.748 105.149 612.749 105.315 612.785C105.482 612.822 105.639 612.894 105.775 612.997C106.053 613.228 106.24 613.551 106.302 613.908C106.364 614.264 106.297 614.631 106.113 614.943C104.738 617.164 103.406 619.47 102.158 621.775C102.057 621.976 101.903 622.145 101.713 622.265C101.523 622.384 101.304 622.449 101.079 622.452C100.853 622.452 100.633 622.386 100.444 622.262ZM111.676 604.303C111.42 604.052 111.264 603.716 111.236 603.358C111.209 603 111.313 602.645 111.528 602.357C113.115 600.242 114.786 598.127 116.457 596.139C116.566 596.009 116.702 595.906 116.856 595.834C117.009 595.763 117.176 595.726 117.345 595.726C117.514 595.726 117.682 595.763 117.835 595.834C117.988 595.906 118.124 596.009 118.234 596.139C118.475 596.41 118.608 596.76 118.608 597.122C118.608 597.485 118.475 597.835 118.234 598.106C116.584 600.073 114.955 602.104 113.39 604.198C113.279 604.353 113.134 604.48 112.964 604.569C112.795 604.657 112.608 604.704 112.417 604.705C112.255 604.702 112.096 604.664 111.951 604.595C111.805 604.526 111.675 604.426 111.571 604.303H111.676ZM125.277 588.481C125.037 588.21 124.904 587.86 124.904 587.498C124.904 587.135 125.037 586.785 125.277 586.514C127.139 584.674 129.064 582.876 130.989 581.184C131.116 581.071 131.265 580.986 131.428 580.936C131.59 580.886 131.762 580.872 131.93 580.894C132.099 580.916 132.261 580.974 132.405 581.064C132.549 581.154 132.672 581.274 132.765 581.416C132.97 581.716 133.061 582.078 133.023 582.439C132.984 582.8 132.818 583.135 132.554 583.384C130.65 585.033 128.768 586.789 126.927 588.587C126.71 588.811 126.414 588.94 126.102 588.947C125.922 588.944 125.745 588.9 125.584 588.82C125.423 588.739 125.282 588.623 125.172 588.481H125.277ZM140.846 575.092C140.672 574.777 140.615 574.412 140.685 574.06C140.755 573.708 140.946 573.391 141.227 573.167C143.342 571.644 145.457 570.227 147.572 568.936C147.717 568.85 147.879 568.796 148.046 568.778C148.213 568.759 148.383 568.776 148.543 568.829C148.703 568.881 148.85 568.966 148.975 569.08C149.099 569.193 149.198 569.332 149.264 569.486C149.429 569.805 149.47 570.173 149.38 570.52C149.291 570.868 149.076 571.17 148.778 571.369C146.663 572.638 144.547 574.034 142.432 575.599C142.234 575.739 141.997 575.813 141.755 575.811C141.539 575.786 141.333 575.708 141.155 575.582C140.978 575.456 140.835 575.287 140.74 575.092H140.846Z" fill="#455A64"/>
<path d="M159.46 565.954H159.841C160.958 565.53 162.112 565.212 163.289 565.002C163.636 564.926 163.94 564.718 164.137 564.422C164.334 564.126 164.409 563.765 164.346 563.416C164.333 563.244 164.286 563.077 164.207 562.924C164.128 562.771 164.019 562.635 163.887 562.525C163.755 562.414 163.602 562.331 163.438 562.281C163.273 562.231 163.1 562.214 162.929 562.231C161.619 562.476 160.331 562.83 159.079 563.289C158.744 563.422 158.473 563.677 158.319 564.003C158.166 564.329 158.143 564.702 158.254 565.044C158.334 565.303 158.494 565.531 158.71 565.694C158.927 565.857 159.189 565.948 159.46 565.954Z" fill="#455A64"/>
<path d="M716.088 497.324L586 457.451L686.221 526.303L716.088 497.324Z" fill="#FE4C1C"/>
<path opacity="0.15" d="M716.088 497.324L586 457.451L686.221 526.303L716.088 497.324Z" fill="white"/>
<path d="M586 457.452L726.009 479.979L755.876 451L586 457.452Z" fill="#FE4C1C"/>
<path opacity="0.15" d="M586 457.452L726.009 479.979L755.876 451L586 457.452Z" fill="white"/>
<path d="M726.009 479.979L726.136 514.584L716.088 497.324L586 457.451L726.009 479.979Z" fill="#FE4C1C"/>
<path opacity="0.2" d="M726.009 479.979L726.136 514.584L716.088 497.324L586 457.451L726.009 479.979Z" fill="black"/>
<path d="M726.136 514.585L706.125 506.991L716.088 497.324L726.136 514.585Z" fill="#FE4C1C"/>
<path opacity="0.2" d="M716.088 497.324L706.125 506.991L709.319 508.197L716.088 497.324Z" fill="black"/>
<path d="M752.386 491.232C752.264 491.323 752.162 491.437 752.086 491.568C752.01 491.698 751.961 491.843 751.942 491.994C751.898 492.355 751.985 492.72 752.186 493.022C752.388 493.325 752.692 493.545 753.042 493.644L756.891 494.68C757.053 494.731 757.224 494.746 757.392 494.724C757.559 494.702 757.72 494.644 757.864 494.553C758.007 494.462 758.128 494.342 758.22 494.199C758.311 494.057 758.37 493.896 758.393 493.728C758.444 493.372 758.365 493.01 758.171 492.707C757.977 492.404 757.68 492.181 757.336 492.078L753.444 491.042C753.265 490.99 753.076 490.98 752.892 491.013C752.709 491.046 752.536 491.121 752.386 491.232Z" fill="#455A64"/>
<path d="M770.006 495.949C772.523 496.795 775.04 497.684 777.515 498.593C777.854 498.722 778.137 498.967 778.311 499.285C778.486 499.603 778.541 499.973 778.467 500.328C778.423 500.492 778.345 500.644 778.237 500.775C778.129 500.905 777.994 501.011 777.842 501.086C777.689 501.16 777.523 501.2 777.353 501.205C777.184 501.209 777.015 501.177 776.859 501.111C774.406 500.201 771.91 499.334 769.414 498.488C769.074 498.371 768.788 498.136 768.609 497.825C768.43 497.513 768.37 497.147 768.441 496.795C768.49 496.524 768.641 496.282 768.864 496.119C769.025 495.997 769.214 495.918 769.413 495.888C769.613 495.859 769.817 495.88 770.006 495.949ZM789.911 503.607C792.385 504.706 794.818 505.722 797.229 507.012C797.556 507.165 797.814 507.433 797.955 507.765C798.096 508.097 798.108 508.469 797.991 508.81C797.928 508.968 797.832 509.111 797.71 509.229C797.588 509.347 797.442 509.438 797.282 509.496C797.122 509.554 796.952 509.577 796.783 509.565C796.613 509.552 796.448 509.504 796.299 509.423C793.93 508.26 791.518 507.139 789.086 506.081C788.758 505.933 788.495 505.672 788.344 505.346C788.192 505.02 788.163 504.65 788.261 504.305C788.33 504.076 788.471 503.876 788.663 503.733C788.84 503.602 789.049 503.521 789.269 503.498C789.489 503.476 789.71 503.513 789.911 503.607ZM809.159 513.316C811.529 514.669 813.855 516.087 816.14 517.546C816.444 517.735 816.669 518.027 816.774 518.37C816.879 518.712 816.857 519.081 816.711 519.407C816.627 519.557 816.512 519.688 816.375 519.79C816.237 519.893 816.079 519.966 815.912 520.003C815.744 520.041 815.571 520.044 815.402 520.01C815.234 519.977 815.074 519.908 814.934 519.809C812.692 518.392 810.386 517.017 808.059 515.579C807.746 515.404 807.508 515.119 807.391 514.78C807.273 514.44 807.286 514.07 807.425 513.739C807.495 513.562 807.612 513.409 807.763 513.294C807.973 513.161 808.216 513.092 808.465 513.096C808.713 513.099 808.954 513.176 809.159 513.316ZM827.393 525.182C829.614 526.811 831.793 528.503 833.887 530.195C834.17 530.414 834.361 530.732 834.42 531.085C834.478 531.438 834.401 531.8 834.204 532.099C834.1 532.236 833.968 532.349 833.817 532.432C833.666 532.515 833.499 532.565 833.327 532.579C833.156 532.593 832.983 532.57 832.821 532.513C832.659 532.456 832.51 532.365 832.385 532.247C830.27 530.576 828.154 528.926 826.039 527.319C825.742 527.112 825.534 526.802 825.456 526.449C825.377 526.097 825.435 525.727 825.616 525.415C825.677 525.304 825.764 525.21 825.87 525.14C826.097 524.987 826.365 524.91 826.638 524.917C826.911 524.925 827.175 525.017 827.393 525.182ZM844.209 539.312C846.198 541.195 848.165 543.141 850.068 545.129C850.314 545.385 850.451 545.726 850.451 546.081C850.451 546.436 850.314 546.777 850.068 547.033C849.947 547.156 849.802 547.253 849.642 547.319C849.482 547.386 849.311 547.42 849.138 547.42C848.965 547.42 848.793 547.386 848.634 547.319C848.474 547.253 848.329 547.156 848.207 547.033C846.346 545.087 844.4 543.162 842.454 541.322C842.189 541.085 842.023 540.757 841.992 540.403C841.961 540.049 842.065 539.697 842.284 539.418L842.454 539.249C842.702 539.04 843.019 538.931 843.344 538.943C843.668 538.955 843.976 539.086 844.209 539.312ZM859.206 555.43C860.581 557.101 861.914 558.794 863.246 560.528L864.304 561.945C864.526 562.216 864.632 562.562 864.601 562.911C864.569 563.259 864.402 563.581 864.135 563.807C863.991 563.906 863.829 563.975 863.658 564.011C863.487 564.046 863.311 564.047 863.139 564.014C862.968 563.981 862.805 563.913 862.66 563.816C862.515 563.718 862.391 563.593 862.295 563.447L861.237 562.051C859.947 560.359 858.635 558.688 857.281 557.038C857.037 556.785 856.901 556.448 856.901 556.097C856.901 555.745 857.037 555.408 857.281 555.155C857.417 555.034 857.576 554.942 857.749 554.885C857.922 554.829 858.105 554.809 858.286 554.827C858.467 554.845 858.642 554.9 858.801 554.989C858.959 555.079 859.097 555.2 859.206 555.346V555.43ZM870.311 572.775C870.622 572.612 870.984 572.573 871.322 572.667C871.66 572.762 871.95 572.982 872.131 573.283C873.59 575.61 875.028 577.979 876.361 580.369C876.453 580.514 876.516 580.677 876.545 580.846C876.573 581.016 876.568 581.19 876.528 581.357C876.489 581.525 876.416 581.683 876.315 581.822C876.214 581.961 876.085 582.078 875.938 582.167C875.616 582.311 875.252 582.327 874.919 582.213C874.585 582.1 874.307 581.864 874.14 581.554C872.786 579.206 871.369 576.858 869.91 574.594C869.722 574.326 869.642 573.996 869.685 573.671C869.728 573.346 869.891 573.049 870.142 572.839L870.311 572.775ZM881.036 591.813C881.373 591.691 881.744 591.702 882.074 591.843C882.404 591.985 882.668 592.246 882.813 592.574C883.976 595.049 885.118 597.566 886.155 600.083C886.228 600.238 886.269 600.406 886.276 600.578C886.282 600.749 886.254 600.92 886.193 601.08C886.132 601.24 886.039 601.386 885.919 601.509C885.8 601.633 885.657 601.73 885.499 601.797C885.154 601.894 884.784 601.86 884.464 601.699C884.143 601.539 883.893 601.264 883.764 600.929C882.749 598.455 881.649 595.98 880.486 593.568C880.34 593.306 880.292 593.001 880.35 592.706C880.408 592.412 880.569 592.148 880.803 591.961C880.858 591.846 880.937 591.745 881.036 591.665V591.813ZM889.18 611.908C889.532 611.841 889.896 611.908 890.201 612.096C890.506 612.284 890.73 612.579 890.829 612.923C891.633 615.504 892.395 618.148 893.05 620.771C893.101 620.933 893.117 621.105 893.096 621.274C893.076 621.443 893.02 621.606 892.932 621.752C892.844 621.898 892.726 622.023 892.586 622.12C892.446 622.217 892.287 622.284 892.12 622.315C891.766 622.361 891.408 622.274 891.115 622.07C890.821 621.867 890.614 621.562 890.533 621.215C889.878 618.634 889.137 616.032 888.418 613.515C888.329 613.272 888.317 613.007 888.385 612.756C888.454 612.506 888.598 612.283 888.799 612.119C888.894 611.97 889.025 611.846 889.18 611.76V611.908ZM894.256 632.743C894.618 632.734 894.971 632.858 895.248 633.092C895.525 633.326 895.706 633.653 895.758 634.012C896.181 636.656 896.519 639.342 896.794 642.008C896.815 642.173 896.801 642.342 896.752 642.502C896.703 642.661 896.621 642.809 896.512 642.935C896.402 643.061 896.266 643.162 896.115 643.232C895.963 643.302 895.798 643.339 895.631 643.34C895.269 643.336 894.921 643.198 894.655 642.952C894.389 642.705 894.224 642.369 894.193 642.008C893.918 639.406 893.6 636.783 893.177 634.181C893.139 633.962 893.16 633.737 893.238 633.529C893.316 633.32 893.449 633.137 893.622 632.997C893.784 632.797 894.007 632.656 894.256 632.595V632.743Z" fill="#455A64"/>
<path d="M391.884 339.833L294.583 396.183L333.228 461.883C333.973 463.656 335.272 465.14 336.93 466.114C341.541 468.716 368.849 484.538 370.351 485.405C371.522 486.081 372.831 486.483 374.18 486.58C375.529 486.678 376.882 486.468 378.138 485.967C379.394 485.466 380.52 484.687 381.432 483.689C382.344 482.69 383.017 481.498 383.402 480.201L425.369 359.251L391.884 339.833Z" fill="#148BCC"/>
<path opacity="0.2" d="M391.884 339.833L294.583 396.183L333.228 461.883C333.973 463.656 335.272 465.14 336.93 466.114C341.541 468.716 368.849 484.538 370.351 485.405C371.522 486.081 372.831 486.483 374.18 486.58C375.529 486.678 376.882 486.468 378.138 485.967C379.394 485.466 380.52 484.687 381.432 483.689C382.344 482.69 383.017 481.498 383.402 480.201L425.369 359.251L391.884 339.833Z" fill="black"/>
<path d="M328.067 415.517L366.713 481.217C367.451 482.885 368.685 484.287 370.246 485.232C371.807 486.177 373.621 486.619 375.442 486.499C377.263 486.379 379.003 485.702 380.427 484.561C381.85 483.419 382.889 481.868 383.402 480.117L425.369 359.167L328.067 415.517Z" fill="#148BCC"/>
<path d="M500.439 2.87281L133.506 214.673C131.046 216.268 128.997 218.421 127.527 220.957C126.057 223.494 125.206 226.341 125.045 229.269V483.924C125.201 486.841 126.049 489.679 127.521 492.203C128.992 494.726 131.044 496.863 133.506 498.435L163.691 515.357C166.315 516.678 169.213 517.365 172.152 517.365C175.09 517.365 177.988 516.678 180.613 515.357L547.567 303.429C550.024 301.831 552.07 299.677 553.539 297.142C555.009 294.606 555.862 291.76 556.028 288.834V34.1786C555.871 31.262 555.021 28.4248 553.55 25.9016C552.078 23.3784 550.028 21.2416 547.567 19.6679L517.404 2.7459C514.762 1.44123 511.852 0.773167 508.906 0.795206C505.96 0.817245 503.061 1.52877 500.439 2.87281Z" fill="#148BCC"/>
<path opacity="0.3" d="M555.88 32.6344C555.203 28.4039 551.755 26.8809 547.546 29.2923L180.634 241.156C178.134 242.718 176.085 244.905 174.69 247.502L127.71 220.744C129.12 218.302 131.111 216.246 133.506 214.758L500.46 2.87277C503.087 1.55695 505.984 0.871826 508.921 0.871826C511.859 0.871826 514.756 1.55695 517.382 2.87277L547.546 19.7948C549.767 21.2209 551.659 23.1034 553.096 25.3172C554.533 27.531 555.482 30.0254 555.88 32.6344Z" fill="white"/>
<path d="M172.194 511.38V256.703C172.355 253.779 173.206 250.934 174.676 248.402C176.147 245.869 178.195 243.719 180.655 242.129L547.567 30.3711C552.2 27.6848 556.028 29.8635 556.028 35.2362V289.807C555.862 292.733 555.009 295.579 553.539 298.115C552.07 300.65 550.024 302.804 547.567 304.403L180.613 516.245C175.959 518.995 172.194 516.753 172.194 511.38Z" fill="#148BCC"/>
<path opacity="0.2" d="M180.613 515.272C177.978 516.56 175.084 517.229 172.152 517.229C169.219 517.229 166.325 516.56 163.69 515.272L133.527 498.35C131.067 496.786 129.016 494.657 127.545 492.141C126.073 489.624 125.223 486.793 125.066 483.882V229.205C125.216 226.2 126.142 223.285 127.752 220.744L174.69 247.46C173.143 249.948 172.282 252.802 172.194 255.73V510.386C172.194 515.315 175.663 518.149 180.613 515.272Z" fill="black"/>
<path d="M275.143 307.47L271.484 305.355C270.083 304.553 268.497 304.131 266.883 304.131C265.269 304.131 263.683 304.553 262.283 305.355L239.924 318.258V287.713L281.32 263.832C283.258 262.689 284.863 261.058 285.976 259.103C287.089 257.147 287.672 254.935 287.666 252.685V235.551C287.672 233.301 287.089 231.088 285.976 229.133C284.863 227.178 283.258 225.547 281.32 224.404C279.362 223.271 277.141 222.675 274.879 222.675C272.617 222.675 270.396 223.271 268.438 224.404L211.03 257.55C207.631 259.509 204.809 262.33 202.849 265.728C200.888 269.126 199.857 272.981 199.861 276.904V435.95C199.852 438.204 200.432 440.421 201.546 442.38C202.659 444.34 204.266 445.974 206.207 447.119C208.166 448.247 210.387 448.842 212.648 448.842C214.909 448.842 217.13 448.247 219.089 447.119L233.409 438.869C235.35 437.724 236.957 436.09 238.071 434.131C239.184 432.171 239.765 429.955 239.755 427.701V365.301L274.995 344.952C276.391 344.141 277.55 342.978 278.356 341.578C279.161 340.179 279.585 338.592 279.585 336.978V315.487C279.614 313.878 279.219 312.29 278.439 310.883C277.659 309.475 276.523 308.298 275.143 307.47Z" fill="#E0E0E0"/>
<path opacity="0.1" d="M220.4 446.357L219.174 447.077C217.215 448.203 214.994 448.795 212.735 448.793C210.475 448.792 208.256 448.197 206.298 447.068C204.341 445.94 202.714 444.317 201.58 442.362C200.447 440.407 199.847 438.189 199.84 435.929V276.883C199.846 273.19 200.769 269.555 202.527 266.307L215.408 273.731C213.643 276.977 212.72 280.613 212.722 284.308V441.873C212.726 442.771 212.964 443.653 213.412 444.43C213.861 445.208 214.505 445.856 215.28 446.309C216.056 446.761 216.936 447.004 217.834 447.013C218.732 447.021 219.617 446.795 220.4 446.357Z" fill="black"/>
<path d="M239.924 287.713V333.149L275.101 312.864C275.572 312.587 276.108 312.44 276.654 312.437C277.2 312.435 277.737 312.578 278.21 312.851C278.684 313.124 279.076 313.518 279.347 313.992C279.618 314.466 279.759 315.004 279.755 315.55V337.083C279.754 338.69 279.331 340.267 278.529 341.659C277.728 343.051 276.575 344.209 275.186 345.015L239.924 365.364V427.743C239.933 429.991 239.352 432.201 238.238 434.154C237.124 436.106 235.518 437.732 233.579 438.869L220.549 446.4C219.766 446.854 218.878 447.094 217.973 447.094C217.068 447.095 216.179 446.857 215.395 446.404C214.612 445.951 213.962 445.3 213.511 444.515C213.061 443.731 212.825 442.841 212.828 441.936V284.308C212.828 280.385 213.86 276.532 215.821 273.135C217.781 269.738 220.601 266.916 223.996 264.953L280.855 232.124C281.563 231.715 282.366 231.5 283.184 231.501C284.002 231.501 284.805 231.717 285.512 232.127C286.22 232.536 286.807 233.125 287.215 233.834C287.623 234.543 287.837 235.347 287.835 236.164V252.727C287.84 254.968 287.257 257.172 286.144 259.117C285.03 261.062 283.425 262.681 281.489 263.811L239.924 287.713Z" fill="#FAFAFA"/>
<path d="M362.736 191.638C362.084 189.43 360.94 187.398 359.39 185.696C357.839 183.994 355.923 182.665 353.786 181.81C351.648 180.955 349.344 180.595 347.047 180.759C344.751 180.923 342.521 181.605 340.526 182.754L326.29 190.983C324.456 192.039 322.864 193.468 321.614 195.176C320.365 196.885 319.486 198.835 319.035 200.903L276.582 394.195C276.249 395.824 276.436 397.517 277.115 399.034C277.794 400.552 278.932 401.819 280.368 402.656L284.26 404.898C285.466 405.595 286.834 405.961 288.226 405.961C289.619 405.961 290.986 405.595 292.192 404.898L309.347 394.999C311.734 393.537 313.679 391.453 314.974 388.971C316.42 386.464 317.483 383.755 318.125 380.933L325.021 345.692L359.711 325.661L363.307 339.981C363.816 341.848 364.98 343.47 366.586 344.55C368.024 345.396 378.029 351.129 379.468 351.996C380.397 352.394 381.416 352.533 382.418 352.399C383.419 352.265 384.366 351.862 385.158 351.234L406.099 339.135L362.736 191.638ZM334.54 297.042L341.964 258.819L342.408 256.704L350.277 287.946L334.54 297.042Z" fill="#E0E0E0"/>
<path opacity="0.1" d="M379.299 351.89C377.416 350.769 367.982 345.375 366.607 344.55C365.001 343.47 363.837 341.848 363.328 339.981L359.732 325.661L369.336 320.119L376.21 347.406C376.717 349.2 377.803 350.776 379.299 351.89Z" fill="black"/>
<path opacity="0.1" d="M363.159 295.37L350.277 287.925L342.408 256.703C342.408 256.703 342.408 256.703 342.408 256.577C343.085 253.531 343.762 250.062 344.524 246.212C345.433 241.41 346.279 236.291 347.083 230.813C348 235.212 348.909 239.267 349.812 242.975C350.721 246.677 351.568 249.85 352.371 252.515L363.159 295.37Z" fill="black"/>
<path opacity="0.1" d="M289.696 400.541C289.581 401.049 289.601 401.577 289.752 402.075C289.903 402.573 290.181 403.024 290.558 403.382C290.936 403.74 291.4 403.994 291.905 404.119C292.41 404.244 292.939 404.236 293.44 404.095V404.264L292.235 404.941C291.029 405.637 289.661 406.003 288.268 406.003C286.876 406.003 285.508 405.637 284.302 404.941L280.368 402.656C278.932 401.819 277.794 400.552 277.115 399.034C276.436 397.517 276.249 395.824 276.582 394.195L319.014 200.988C319.403 199.2 320.12 197.501 321.129 195.975L334.011 203.42C332.99 204.932 332.272 206.627 331.896 208.412L289.696 400.541Z" fill="black"/>
<path d="M406.12 339.199L385.158 351.298C382.81 352.652 380.927 352.905 379.489 352.059C377.886 350.977 376.723 349.356 376.21 347.49L369.336 320.161L324.915 345.735L318.041 380.975C317.378 383.8 316.309 386.515 314.868 389.034C313.58 391.516 311.633 393.594 309.241 395.041L294.075 403.82C293.565 404.109 292.982 404.246 292.396 404.212C291.81 404.178 291.247 403.976 290.773 403.63C290.299 403.284 289.936 402.808 289.726 402.26C289.516 401.712 289.469 401.115 289.591 400.541L331.79 208.349C332.244 206.285 333.124 204.338 334.373 202.634C335.622 200.929 337.214 199.504 339.045 198.449L352.731 190.538C353.704 189.978 354.791 189.645 355.912 189.565C357.032 189.485 358.156 189.661 359.198 190.078C360.241 190.496 361.175 191.144 361.931 191.975C362.687 192.806 363.244 193.797 363.561 194.875L406.12 339.199ZM363.159 295.413L352.371 252.473C351.568 249.829 350.721 246.635 349.812 242.933C348.902 239.232 347.993 235.17 347.083 230.771C346.301 236.249 345.433 241.347 344.545 246.17C343.656 250.992 342.768 255.138 341.964 258.734L331.261 313.731L363.159 295.413Z" fill="#FAFAFA"/>
<path d="M506.383 265.165C510.077 258.814 513.321 252.212 516.092 245.408C518.953 238.394 521.356 231.201 523.284 223.875C525.229 216.472 526.713 208.955 527.726 201.368C528.764 193.706 529.287 185.982 529.291 178.249C529.517 166.88 528.063 155.539 524.976 144.595C522.775 136.37 518.558 128.824 512.708 122.639C510.865 120.874 508.803 119.352 506.573 118.112L493.882 110.751C489.863 108.422 485.344 107.094 480.704 106.88C473.258 106.457 465.009 108.861 455.955 114.093C446.48 119.657 438.083 126.879 431.165 135.415C423.534 144.677 417.109 154.869 412.043 165.748C401.14 189.21 395.454 214.756 395.374 240.628C395.155 252.013 396.624 263.368 399.732 274.324C401.926 282.573 406.16 290.137 412.043 296.322C413.877 298.141 415.948 299.706 418.198 300.976C420.313 302.16 428.669 307.025 430.741 308.231C434.81 310.586 439.391 311.914 444.089 312.102C451.534 312.469 459.798 310.036 468.88 304.804C472.743 302.574 476.415 300.027 479.858 297.19L485.104 303.218C485.819 303.952 486.63 304.585 487.515 305.101C488.996 305.968 499.53 312.018 500.333 312.504C501.746 313.372 503.397 313.772 505.05 313.646C508.113 313.281 511.055 312.232 513.66 310.579L535.891 297.761L506.383 265.165ZM486.542 212.072C485.195 219.534 483.031 226.826 480.09 233.816C477.512 240.011 474.057 245.802 469.831 251.014C465.972 255.769 461.285 259.789 455.998 262.88C452.123 265.39 447.661 266.848 443.052 267.111C440.734 263.353 439.081 259.225 438.166 254.906C436.539 247.431 435.787 239.793 435.924 232.145C435.884 223.675 436.635 215.22 438.166 206.889C439.479 199.431 441.607 192.139 444.512 185.144C447.115 178.923 450.59 173.104 454.834 167.863C458.72 163.043 463.45 158.972 468.795 155.848C472.601 153.415 476.975 152.015 481.486 151.787C483.83 155.576 485.504 159.741 486.436 164.098C488.095 171.583 488.883 179.234 488.784 186.9C488.81 195.37 488.059 203.824 486.542 212.156V212.072Z" fill="#E0E0E0"/>
<path opacity="0.1" d="M430.213 307.999C427.526 306.454 420.144 302.16 418.198 301.061C415.948 299.791 413.877 298.226 412.043 296.407C406.16 290.222 401.926 282.657 399.732 274.408C396.624 263.453 395.155 252.098 395.374 240.712C395.374 227.687 396.836 214.702 399.732 202.003C402.312 190.438 406.054 179.163 410.9 168.349L423.782 175.795C413.608 198.596 408.32 223.275 408.256 248.243C408.036 259.621 409.504 270.97 412.614 281.917C414.804 290.174 419.038 297.747 424.925 303.937C426.533 305.481 428.306 306.843 430.213 307.999Z" fill="black"/>
<path opacity="0.1" d="M492.972 157.286C491.728 155.727 490.174 154.442 488.408 153.514C486.642 152.585 484.703 152.033 482.713 151.893C482.354 151.893 481.973 151.893 481.613 151.893C483.946 155.678 485.613 159.834 486.542 164.182C488.159 171.644 488.911 179.266 488.784 186.9C488.817 195.412 488.067 203.909 486.542 212.283C485.195 219.746 483.031 227.038 480.09 234.028C477.512 240.222 474.057 246.014 469.831 251.225C465.972 255.981 461.285 260.001 455.998 263.092C452.123 265.602 447.661 267.06 443.052 267.322C443.513 268.065 444.03 268.772 444.596 269.437C445.837 271.009 447.401 272.296 449.182 273.212C450.962 274.128 452.919 274.651 454.919 274.747C459.884 274.722 464.735 273.252 468.879 270.516C474.167 267.425 478.854 263.405 482.713 258.65C486.93 253.432 490.384 247.642 492.972 241.452C495.916 234.456 498.079 227.157 499.424 219.687C500.95 211.312 501.7 202.815 501.666 194.303C501.788 186.691 501.036 179.09 499.424 171.649C498.416 166.426 496.207 161.509 492.972 157.286Z" fill="black"/>
<path opacity="0.1" d="M483.517 294.101C482.312 295.201 481.106 296.217 479.858 297.274L485.104 303.303C485.819 304.036 486.63 304.67 487.515 305.185C488.953 306.031 498.874 311.721 500.207 312.525C499.387 312.022 498.633 311.418 497.964 310.727L483.517 294.101Z" fill="black"/>
<path d="M535.891 297.845L513.66 310.685C511.056 312.32 508.124 313.36 505.072 313.731C503.74 313.797 502.412 313.561 501.185 313.041C499.958 312.52 498.864 311.73 497.985 310.727L483.517 294.101C479.044 298.218 474.136 301.836 468.88 304.889C459.798 310.121 451.534 312.553 444.089 312.187C436.879 311.922 430.035 308.945 424.925 303.853C419.045 297.657 414.813 290.086 412.614 281.833C409.523 270.91 408.054 259.592 408.256 248.243C408.336 222.371 414.022 196.825 424.925 173.363C429.999 162.46 436.439 152.246 444.089 142.966C451.012 134.435 459.409 127.214 468.88 121.645C477.933 116.399 486.182 113.994 493.628 114.432C500.808 114.774 507.6 117.793 512.665 122.893C518.528 129.078 522.746 136.634 524.934 144.87C528.038 155.775 529.507 167.081 529.291 178.418C529.294 186.15 528.778 193.874 527.747 201.538C526.713 209.159 525.216 216.711 523.263 224.15C521.327 231.469 518.918 238.655 516.05 245.662C513.288 252.47 510.043 259.072 506.341 265.419L535.891 297.845ZM435.924 232.272C435.787 239.927 436.539 247.572 438.166 255.054C439.163 260.248 441.333 265.146 444.512 269.374C445.761 270.936 447.327 272.217 449.105 273.132C450.884 274.047 452.837 274.576 454.834 274.683C459.799 274.656 464.65 273.186 468.795 270.453C474.083 267.362 478.769 263.342 482.629 258.586C486.852 253.37 490.314 247.579 492.909 241.389C495.816 234.389 497.944 227.089 499.255 219.623C500.792 211.251 501.543 202.753 501.497 194.24C501.63 186.627 500.877 179.025 499.255 171.586C498.263 166.39 496.092 161.49 492.909 157.265C491.661 155.705 490.103 154.421 488.334 153.492C486.564 152.564 484.622 152.012 482.629 151.872C477.718 151.831 472.905 153.244 468.795 155.933C463.446 159.042 458.714 163.108 454.834 167.926C450.598 173.173 447.123 178.991 444.512 185.208C441.617 192.206 439.489 199.496 438.166 206.953C436.637 215.277 435.886 223.725 435.924 232.188V232.272Z" fill="#FAFAFA"/>
</svg>
